<?xml version="1.0" encoding="UTF-8"?>
<svg viewBox="0 0 460 460" version="1.1" xmlns="http://www.w3.org/2000/svg" xmlns:xlink="http://www.w3.org/1999/xlink">
    <!-- Generator: Sketch 55.1 (78136) - https://sketchapp.com -->
    <title>Logo</title>
    <desc>Created with Sketch.</desc>
    <defs>
        <rect id="path-1" x="0" y="0" width="460" height="460" rx="230"></rect>
    </defs>
    <g id="Page-1" stroke="none" stroke-width="1" fill="none" fill-rule="evenodd">
        <g id="Logo">
            <mask id="mask-2" fill="white">
                <use xlink:href="#path-1"></use>
            </mask>
            <use id="Rectangle" fill="#FFC602" fill-rule="nonzero" xlink:href="#path-1"></use>
            <path d="M244,186 L325.18,186 C336.180055,186 346.849948,187.154988 357.19,189.465 C367.530052,191.775012 376.71496,195.569974 384.745,200.85 C392.77504,206.130026 399.209976,213.059957 404.05,221.64 C408.890024,230.220043 411.31,240.669938 411.31,252.99 C411.31,269.930085 406.525048,283.734947 396.955,294.405 C387.384952,305.075053 374.350082,312.279981 357.85,316.02 L420.22,419.64 L370.06,419.64 L315.94,320.64 L285.58,320.64 L285.58,419.64 L244,419.64 L244,186 Z M319.57,286.65 C325.51003,286.65 331.44997,286.210004 337.39,285.33 C343.33003,284.449996 348.664976,282.800012 353.395,280.38 C358.125024,277.959988 362.029985,274.495023 365.11,269.985 C368.190015,265.474977 369.73,259.700035 369.73,252.66 C369.73,246.279968 368.300014,241.05502 365.44,236.985 C362.579986,232.91498 358.950022,229.670012 354.55,227.25 C350.149978,224.829988 345.145028,223.180004 339.535,222.3 C333.924972,221.419996 328.480026,220.98 323.2,220.98 L285.58,220.98 L285.58,286.65 L319.57,286.65 Z" id="R" fill="#000000" mask="url(#mask-2)"></path>
        </g>
    </g>
</svg>
